<svg xmlns="http://www.w3.org/2000/svg" xmlns:xlink="http://www.w3.org/1999/xlink" width="511.785" height="149.365" viewBox="0 0 511.785 149.365"><defs><clipPath id="a"><rect width="511.785" height="149.365" fill="#013968"></rect></clipPath></defs><path d="M306.81,0V2.02h3.03V9.955h2.19V2.02h3.027V0Z" transform="translate(184.256)" fill="#013968"></path><path d="M321.129,0l-2.615,4.209L315.9,0h-2.361V9.955H315.7V3.5l2.774,4.209h.058l2.8-4.253v6.5h2.161V0Z" transform="translate(188.295)" fill="#013968"></path><g clip-path="url(#a)"><path d="M70.111,84.661H66.716v-3.2h3.395V79.306c0-2.822.765-4.973,2.151-6.359a7.278,7.278,0,0,1,5.309-1.913,11.177,11.177,0,0,1,4.064.621v3.2a12.309,12.309,0,0,0-3.587-.623c-2.868,0-4.3,1.722-4.3,5.259V81.5h7.841v3.156H73.792v21.47H70.111Z" transform="translate(40.067 42.66)" fill="#013968"></path><path d="M77.979,90.194v-.1a12.887,12.887,0,0,1,25.774-.1v.1A12.837,12.837,0,0,1,90.795,103.01,12.665,12.665,0,0,1,77.979,90.194m22,0v-.1a9.356,9.356,0,0,0-9.181-9.659c-5.355,0-9.038,4.352-9.038,9.563v.1c0,5.307,3.921,9.611,9.134,9.611,5.355,0,9.085-4.3,9.085-9.515" transform="translate(46.831 46.356)" fill="#013968"></path><path d="M97.023,90.194v-.1A12.887,12.887,0,0,1,122.8,90v.1a12.837,12.837,0,0,1-12.958,12.912A12.665,12.665,0,0,1,97.023,90.194m22,0v-.1a9.356,9.356,0,0,0-9.181-9.659c-5.355,0-9.038,4.352-9.038,9.563v.1c0,5.307,3.921,9.611,9.133,9.611,5.355,0,9.086-4.3,9.086-9.515" transform="translate(58.268 46.356)" fill="#013968"></path><path d="M116.068,93.77v-.1c0-8.081,5.88-12.862,11.811-12.862a11.15,11.15,0,0,1,9.467,5.259V71.153h3.683v34.906h-3.683v-4.973c-2.007,2.964-4.925,5.5-9.467,5.5-5.93,0-11.811-4.685-11.811-12.814m21.422-.048v-.1a9.188,9.188,0,0,0-8.942-9.515c-4.781,0-8.7,3.539-8.7,9.515v.1c0,5.834,4.064,9.563,8.7,9.563a9.232,9.232,0,0,0,8.942-9.563" transform="translate(69.705 42.732)" fill="#013968"></path><path d="M135.552,99.243l1.865-2.63a14.449,14.449,0,0,0,8.56,3.156c2.964,0,5.117-1.53,5.117-3.921v-.1c0-2.486-2.918-3.443-6.169-4.35-3.873-1.1-8.177-2.439-8.177-6.982v-.1c0-4.256,3.539-7.076,8.416-7.076a16.913,16.913,0,0,1,8.894,2.724l-1.674,2.774a13.98,13.98,0,0,0-7.316-2.391c-2.916,0-4.781,1.53-4.781,3.587v.1c0,2.343,3.06,3.251,6.359,4.256,3.825,1.148,7.937,2.63,7.937,7.076v.1c0,4.686-3.872,7.412-8.8,7.412a17.007,17.007,0,0,1-10.232-3.635" transform="translate(81.406 46.392)" fill="#013968"></path><path d="M151.332,90.146v-.094c0-7.126,5.021-12.864,11.858-12.864,7.316,0,11.524,5.834,11.524,13.054a9.574,9.574,0,0,1-.048,1.2h-19.6c.525,5.355,4.3,8.368,8.7,8.368a10.23,10.23,0,0,0,7.795-3.491l2.3,2.057a12.762,12.762,0,0,1-10.186,4.638c-6.79,0-12.337-5.213-12.337-12.864m19.653-1.434c-.383-4.494-2.964-8.416-7.889-8.416-4.3,0-7.556,3.587-8.033,8.416Z" transform="translate(90.883 46.356)" fill="#013968"></path><path d="M170.626,77.694h3.681v6.455c1.818-4.112,5.405-7.076,10.09-6.886v3.969h-.286c-5.4,0-9.8,3.873-9.8,11.332v9.851h-3.681Z" transform="translate(102.47 46.396)" fill="#013968"></path><path d="M182.016,77.517h4.064L194.4,98.031l8.368-20.514h3.969l-10.759,24.913h-3.252Z" transform="translate(109.31 46.553)" fill="#013968"></path><path d="M201.435,71.6h4.208v4.064h-4.208Zm.238,9.467h3.681v24.722h-3.681Z" transform="translate(120.973 43.001)" fill="#013968"></path><path d="M208.273,90.194v-.1a12.877,12.877,0,0,1,22.569-8.512L228.4,84.17c-1.961-2.057-4.161-3.731-7.508-3.731-5.021,0-8.846,4.256-8.846,9.563v.1c0,5.355,3.921,9.611,9.085,9.611a10.205,10.205,0,0,0,7.556-3.681l2.343,2.2c-2.487,2.774-5.451,4.782-10.09,4.782a12.694,12.694,0,0,1-12.672-12.816" transform="translate(125.079 46.356)" fill="#013968"></path><path d="M225.484,90.146v-.094c0-7.126,5.021-12.864,11.859-12.864,7.316,0,11.524,5.834,11.524,13.054a9.562,9.562,0,0,1-.048,1.2h-19.6c.525,5.355,4.3,8.368,8.7,8.368a10.23,10.23,0,0,0,7.795-3.491l2.3,2.057a12.762,12.762,0,0,1-10.186,4.638c-6.79,0-12.337-5.213-12.337-12.864m19.653-1.434c-.383-4.494-2.964-8.416-7.889-8.416-4.3,0-7.556,3.587-8.033,8.416Z" transform="translate(135.415 46.356)" fill="#013968"></path><path d="M71.628,1.9V12.091a34.186,34.186,0,0,0-9.381-7.636A37.572,37.572,0,0,0,43.77,0,40.516,40.516,0,0,0,21.508,6.348,45.45,45.45,0,0,0,5.78,23.4,50.026,50.026,0,0,0,0,47.564,49.634,49.634,0,0,0,5.78,71.535,44.665,44.665,0,0,0,21.508,88.491,40.935,40.935,0,0,0,43.77,94.743a38.121,38.121,0,0,0,18.573-4.451A33.54,33.54,0,0,0,71.628,82.8V92.85H92.47V1.9Zm-5.78,65.375q-7.111,7.771-18.664,7.769a25.235,25.235,0,0,1-13.36-3.505,24.613,24.613,0,0,1-9.1-9.762,30.24,30.24,0,0,1-3.316-14.4,30.245,30.245,0,0,1,3.316-14.4,24.641,24.641,0,0,1,9.1-9.76,25.249,25.249,0,0,1,13.36-3.505,25.634,25.634,0,0,1,13.547,3.505,24.072,24.072,0,0,1,9,9.76,31.043,31.043,0,0,1,3.22,14.4q0,12.134-7.1,19.9" transform="translate(0 0)" fill="#013968"></path><rect width="20.842" height="90.955" transform="translate(273.339 1.897)" fill="#013968"></rect><path d="M237.1,94.745A46.6,46.6,0,0,1,213.041,88.4a47.494,47.494,0,0,1-17.15-17.148,46.6,46.6,0,0,1-6.348-24.068,45.6,45.6,0,0,1,6.348-23.874,48.007,48.007,0,0,1,17.15-16.961A46.612,46.612,0,0,1,237.1,0a47.488,47.488,0,0,1,24.255,6.257,46.974,46.974,0,0,1,17.15,16.956,46.134,46.134,0,0,1,6.348,23.97,46.633,46.633,0,0,1-6.348,24.068A47.494,47.494,0,0,1,261.358,88.4,46.956,46.956,0,0,1,237.1,94.745m0-20.085a26.6,26.6,0,0,0,13.739-3.505,24.25,24.25,0,0,0,9.285-9.757,29.887,29.887,0,0,0,3.316-14.215,28.106,28.106,0,0,0-3.412-14.021,25.514,25.514,0,0,0-9.285-9.568,28.117,28.117,0,0,0-27.19,0,24.593,24.593,0,0,0-9.285,9.568,28.758,28.758,0,0,0-3.316,14.021A29.887,29.887,0,0,0,214.272,61.4a24.25,24.25,0,0,0,9.285,9.757A26.225,26.225,0,0,0,237.1,74.659" transform="translate(113.831 0)" fill="#013968"></path><path d="M333.474,18.663A37.591,37.591,0,0,0,320.966,5.212,32.469,32.469,0,0,0,302.777,0a35.61,35.61,0,0,0-18.1,4.643,33.431,33.431,0,0,0-9,7.6V1.9H254.836V92.849H275.68V40.361a21.7,21.7,0,0,1,2.654-10.8,18.919,18.919,0,0,1,7.388-7.391,21.749,21.749,0,0,1,10.8-2.651q9.094,0,14.874,5.874t5.78,14.967V92.849h20.846V35.813a35.059,35.059,0,0,0-4.547-17.15" transform="translate(153.043 0.001)" fill="#013968"></path><path d="M134.02,46.463l23.046,27.61H182.5l0-2.79L148.892,31.269c-4.975,5.1-14.674,14.992-14.872,15.194" transform="translate(80.486 18.779)" fill="#0ba97c"></path><path d="M155.4,1.194c-6.4,6.6-13.389,13.79-20.313,20.9l13.584,16.2c11.574-11.883,23.988-23.589,33.186-33.037V1.194Z" transform="translate(81.126 0.717)" fill="#0ba97c"></path><path d="M150.864,1.883H126.792V5.947l31.289,37.311C149.622,51.891,142.516,59.087,138.535,63c-7.228,7.1-16.281,11.028-25.527,11.161h-1.2A26.894,26.894,0,0,1,84.72,47.53a26.894,26.894,0,0,1,27.088-26.635v0h3.459V.046h-3.459c-26.628,0-48.29,21.3-48.29,47.484,0,26.081,21.494,47.372,47.983,47.535h1.33c14.967-.08,29.421-6.233,40.7-17.321,3.825-3.761,27.738-28.106,32.923-33.423Z" transform="translate(38.145 0.028)" fill="#278ee2"></path></g></svg>